/* XPM */
static char *oleo_icon[] = {
/* width height num_colors chars_per_pixel */
"    48    48      124            2",
/* colors */
".. c #040204",
".# c #ecee84",
".a c #743a3c",
".b c #6c7214",
".c c #9c4a4c",
".d c #7c5a5c",
".e c #64665c",
".f c #6c6264",
".g c #b41e1c",
".h c #5c5ea4",
".i c #4c2a24",
".j c #6c6654",
".k c #6c6a3c",
".l c #745a74",
".m c #8c2e2c",
".n c #64627c",
".o c #a44644",
".p c #f4e2ac",
".q c #7c5e54",
".r c #4c1e4c",
".s c #14165c",
".t c #bc423c",
".u c #a44a4c",
".v c #5c5acc",
".w c #240a6c",
".x c #ecea94",
".y c #6c6e24",
".z c #6c626c",
".A c #844e84",
".B c #9c2a2c",
".C c #4c224c",
".D c #8c5654",
".E c #6462a4",
".F c #6c6e34",
".G c #5c5e9c",
".H c #945254",
".I c #64666c",
".J c #5c5ab4",
".K c #942e2c",
".L c #14127c",
".M c #843234",
".N c #745e5c",
".O c #6c6664",
".P c #74663c",
".Q c #64628c",
".R c #b44244",
".S c #bc4644",
".T c #eceaa4",
".U c #54224c",
".V c #74720c",
".W c #845654",
".X c #646664",
".Y c #7c567c",
".Z c #8c322c",
".0 c #64667c",
".1 c #eceaac",
".2 c #7c5e64",
".3 c #c43e3c",
".4 c #ecee94",
".5 c #746a2c",
".6 c #5c5eb4",
".7 c #74625c",
".8 c #7c3634",
".9 c #944e6c",
"#. c #646a54",
"## c #a42624",
"#a c #4c263c",
"#b c #6c6a54",
"#c c #6c6a4c",
"#d c #a44664",
"#e c #5c1a5c",
"#f c #14126c",
"#g c #ac4a4c",
"#h c #745e6c",
"#i c #8c4e8c",
"#j c #4c264c",
"#k c #8c5a5c",
"#l c #9c5254",
"#m c #0c0e8c",
"#n c #746e1c",
"#o c #ecee8c",
"#p c #9c4e4c",
"#q c #7c5a64",
"#r c #5c5eac",
"#s c #54262c",
"#t c #6c665c",
"#u c #6c6a44",
"#v c #745a7c",
"#w c #8c2e34",
"#x c #646284",
"#y c #ac464c",
"#z c #fcdecc",
"#A c #7c5e5c",
"#B c #541e54",
"#C c #bc4244",
"#D c #a44e4c",
"#E c #5456ec",
"#F c #240e6c",
"#G c #ecea9c",
"#H c #6c6e2c",
"#I c #845284",
"#J c #4c2254",
"#K c #8c565c",
"#L c #64629c",
"#M c #945654",
"#N c #646674",
"#O c #5c5abc",
"#P c #942e34",
"#Q c #843634",
"#R c #745e64",
"#S c #6c666c",
"#T c #746a44",
"#U c #b44644",
"#V c #845a5c",
"#W c #7c5a7c",
"#X c #8c3234",
"#Y c #646684",
"#Z c #c44244",
"#0 c #7c3a3c",
"#1 c #5c5ebc",
"#2 c #746264",
"#3 c #646a5c",
"#4 c #141274",
"#5 c #745e74",
/* pixels */
".X.X.X.X.X.X.X.X.X.X.X.X.X.X#S.X.X.X.X.X.X.X.X.X.X.X.X.X.O.I.X.X.X.X.X.X.X.X.X.X.X.X.O.X.X.X.X.X",
"#S.X#S.X#S.X#S.X#S.X#S.X#S.X.X.X#S.X.I.O.I#S.n.0.O.e.O.I.O.X.O.X#S.X#S.X.O.X#S.X#S.X.I.X#S.X#S.X",
".X.X.X.X.X.X.X.X.X.X.X.X.X#S.X.X.X.O.X.X.X.n.s.G.e#u#3.X.I.I.X.I.X.X.X.I.X.X.I.X.X.O.I.O.X.X.X#S",
"#S.X.X#S.X..#S.X#S...X#S.X.X.X.O.I.X.X#S.X#x#4#r#c.1.e.O.X#S.X.O.X#S.X.O.X.O.I.O.I.X.X.X.X#S.X.X",
".X.X#S.X.....X.X...X...X.X#S.X.I.X.O.I.X.X#x#4#L.k.x#c.X.X.O.X.I.X.X.X.I.X.I.X.X.O.I.O.I.X.X.O.I",
"#S.X.X.X.X...X.X.X.X...X.O.I.X.O.X.I#3.X.I#x#4.G#H#o.j#S.X.I.X.X.O.X#S.X.O.X.O.X.I.X.X.O.X#S.z#h",
".X.X#S.X.X...X#S.X...X.X.I.X.O.X.I.O.I.O.X#x#4.G#H#o#u.X.X.O.X#S.X.I.X.X.I.X.I.O.X.X.I.X.I.z.Y#J",
"#S.X.X.X.......X.......X.O.X.I.X.X.X.X.I.X#x#f.E#H#o.j.X.I.X.I.X.X.O.X.O.X.O.X.X.I.O.X#S.f#5.C.A",
".X.X#S.X.X.X.X.X.X.X.X.X.I.X.O.X#S.X.O.X.X#x#4.G#H#o#u.X.O.X#S.X.I.X.X.X.I.X#S.X.X.X.X.z.z#W.C.Y",
"#S.X.X.X.X.X.X.X#S.X.X.X.O.I.O.I.X.X.X.I.X#x#4.h.k.x#u.e.X.X.X#S.X.z#2.z#S.X.X.O.X.O.z.z.Y#a.l#5",
".X.X#S.X#S.X#S.X.X#S.X.X.X.X.X.O.I#S.X.O.X#x#4.h#c.T.F#u.e.O.I.X.X.z.Y.Y.z.X.I.X.I#S.z.Y#J#J#5.z",
".X#S.X.X.X.X.X.I.X.X.O.I.O.I.O.I.X.X.X.X..#x#f.J.X.F.T.F#b.X.X.z.z#5.C.C#v#5.z.O.z.z#v.C#I.Y.z.X",
".X.X.X#S.......X...X.I...X.....X...X#S...X.n#4.J.n.k.4.y#c.X#S.z.Y.C#5#W#B.A.z.z.z.Y#I.C.l.z.f.I",
".X#S.X...X.X.X.X...X.X...X...X...X...X...X#x#4#O.n#c.x.V#c#3.X#h.r#I.z.l#B#e.Y#5.Y.C.C.Y.z.X.X.X",
".X.X.X.........X...X.X...X...X...X...X...X#x#f#O#x#..##n#..X.X#5#J#I#h.z.Y.C#I#I#B.Y.l.z.z.O.I.O",
".X#S.X.X.X.X...X...X.X...X...X...X...X...X#x#4#O.n.j#n#o#H.j.f#5#j.Y.z.X#5.l.C.C.U.Y.z#S.X.X.X.X",
".X.X#S.......X.X.X.....X.X...X...X...X.X...n#4#O.n#.#H#G#n.5#V.C.l.z.z.X.z.z.z.z.z.z.z.X.X#S.X.I",
"#S.X.X.X.X.X.X.X.X.X.X.X.X.X.X.X.X.X.X.X.X#x#4#O#x#t#u#H.x.p#s.Y.7.e.X.X.f.X.I.X.I.X.X#S.X.X.O.X",
".X.X.X.X#S.X#S.X#S.X.X#S.X#S.X.X.O.X.I.X.I#x#f#O#x.e.e#t.7.q.i#z#T#u.e.X.X.I.O.X.f.I.X.I.X.I.X.X",
"#S.X#S.X.X.X.X.X.X.I.O.X.I.X.O.I.X.X.O.X.X#x#4#O#x.X.O.z.l#a.q.P#G#H#b#S.X.O.X.I.X.X.O.I.O.X#S.X",
".X.X.X#S.X#S.X.O.X.X.X.X.O.X.I.X.f.I.X.I.X#x#4#O#x.X.X.z#I#a#h#u.x.y.j.e.I.X.X.f.X.I.X.X.X.X.X.O",
".O.I.O.X.X.X.I.X#S.X#S.X.I.X.O.X.X.X.O.X.X#x#f#O#x.X.I.z#I.r.z.j.y.x.k#b.e.O.X.X.I.O.X.O.I.O.I.X",
".X.X.X.I.O.X.O.X.X.X.X.O.X.I.X#S.X.I.O.I.X#x#4#O.n.X.X#5#J#I#5.e#..k.4.y.j.X.I.O.X.X.I.X.X.X.O.I",
".X#S.X.O.X.I.X.I.X#S.X.I.X.O.X.X.X.X.f.X.X#x#4#O#x.I.z#5.C.Y.z.O.X#u.x.V.F#c#c#c#.#3.O.X.O.I.X.X",
".X.X.I.X.O.X.O.X#S.X.X.O.I.X.I.O.I.X.I.X.X#x#f#O#x.X.z.l#j#v.z.I.X#c.V.#.V.b.V.y#H#u.e.X.I.O.X#S",
".I.O.X.O.I.X.I.X.X.O.X.I.X.O.X.X.X.X.O.X.X#x#4#O#x.z.Y.C#v#h#S.X.X#b.y.#.#.#.x.x.T.F#u#b#t.X.X.X",
".X.X.I.X.O.X.O.I.X.I.X.O.X.I.X#S.X.I.X#S.X#x#4#O#x.z#i#e.l.z.I.X.X#t#..j#u.j#u#u.F.T.4.y#..X#S.X",
".I.O.X.O.I.X.I.X.O.X.O.X.I.X.O.X.X.O.X.X.X#Y#4.J#x.l#e#e#5.X.X.O.I.X.O.X.X.X.X.e#u#H.#.V.k#t.X.X",
".X.X.I.X.O.X.O.I.X.I.X#S.X.O.I.X#S.I.X.I.X#x#4#O.n.z#B.A#5.X.X.I.X.O.X.X.O.X.O.X#t.k.V.##H#u#3.O",
".I.O.X.O.I.X.I.X.O.X.O.X.X.X.X.X.X.I.O.X.X.n#4#O#x.z.C.Y.z.I.X.O.X.I.X#S.X.X.X.X.X#b.y.x.T.k#t.X",
".X.X.I.X.O.X.O.I.X.I.X#S.X#S.X#S.X.X.I.X.I#Y#4#O#x.X.z.z.f.X.O.I.X.O.X.X.O.I.O.I.X.e#b#u.1.k#..X",
".I.O.X.O.I.X.I.X.O.X.O.X.X.X.X.X.I.X.O.X.X.n#m.v.G#x#x#x#x#x#x#x#x#x#x#x#Y#x#x#Y#x#Y#x.n#3.X.n#x",
".X.X.I.X.O.X.O.I.X.I.X.I.O.I.O.X.O.X.I.X.I.Q#m#E.v.J#O#O.6#1#O.J#O#1#O#1.J#1.J#O#1.J#O.6.6#r.J#O",
".O.f.f#R#A#A#R.f.O.f.X.O.X.X.X.I.X.I.O.X.X#x.L#m.L#f.w.w.w.w#f#4#F.w#4#f#4#f#4#4#4#f#4#4#f#4#4#4",
".X.f#V.D#p#p.H.d.f.X.X.I.X#S.X.O.X.X.I.O.I#N#x.G#x#v.9#d#d.9#v#v.9.9#v#x#x#Y.n.G#N#x#Y#x#x.n#x#x",
".I.N#M.M#w.Z#0.W#2.O.2#A.N.f.O.O.f#2#2.f.X.X.X.X.N.W#Q.m.m#Q.W.D.K.m.d.X.e.f.f.f.X.X.N.N.f.O.X.X",
".X#A.M.u.D#V.D.d.N.N#l.u.D#V.f.f.d#k.W#V.f.X.X#A.H#Q.W.2.d#k.M#y#C.Z#A.f.d.D#V.d.f#A.H#D.D#V.f.O",
".X#A.K#g#V#A.D.D#2.d.K.B.m.D#R.7#0#p#p.a.N.X.X#A#g.m#A.O.X#A.m#Z#C.Z.d.7.D#Q.M#l#V.D.M.Z.M.H#R.X",
".X#q.m#U.H#M.u#p#A#A#w#C.S.M#A#A.M#U#U#X#A.X#S.d.u.K#A.X.X.d#P.t.3.Z#A#A.M#U#U.K#y#Q#V.D.u#Q#A.X",
".O#A.Z#y.H.8#P.o#A#A#w.3.t.m#A#A.m.t#Z#w#A.X.X#A#g.Z#A.X.O#A#w.3#C.m#A.d.K.3.t.B.t.Z.d#A#g.m#A.X",
".X#A#w#g#V#V#y.m.d#A.m#Z#C.m#A#A#w#Z.t.K#A.I.O#A.u.K#A.X.I.d.Z#C#Z.m#A#V##.g.K.u.t.Z.d#A.u.Z.d#S",
".I#A.c.u.D.D.u#Q#A#A.M.R#U.M#A#A#Q.R#C#P.d.X.X#A.H#Q#K.d#A#K#Q#y#C.K#V.D##.3#y#D.u#Q#k.D.u#Q#A.X",
".X#2.D.M.Z#X.M.H#2#R.a#p#p.a.N.7.H.Z.B.m.d.X.I.f.N.D#Q.Z.m#Q.W.D.K.K.8#M.u.K.B#X.D.W.M#X#X.D#R.X",
".O.f.d#M#p#p#M.d.f.f#V.W#k#V.f.f.d.D.u#l#R.O.X.O.X.N.H#g#g.H.2.N#l#p#M.W#V#M.c#p#2.N#l#p.H.d#2.X",
".X.O.f.N#A#A#R.f#t.O.f.7.f.f#t.O.f.N#A.N.O.X.I.X.I.f#A#A.q.N.f.O.N#A#R#2#2.N#A.7.f.O.N#A.7.f.O.X",
".X.X#S.X.I.X.X.X.X.X.X.X.O.X.X.X.O.X.O.I.X.X.O.X#S.X.X.X.I.O.X.X#S.X.X.X.X.X.X.O.X.X#S.X.X.X.X.X",
".O.I.X.X.O.I.O.I.X#S.X.X.X.X#S.X.I.X.X.X#S.X.I.X.X.O.X.X.X.X.I.O.X.X#S.X.I.X.I.X.I.O.X.X#S.X#S.X",
".X.O.X#S.X.X.X.O.X.X.X.I.O.I.X.X.X.X#S.X.X.X.X.O.I.X.I.O.X#S.X.X.X.I.X.O.X.O.X.O.X.I.X.I.X.X.X.X"
};
